{"title":"Paw Patrol Brave Heroes Big Rescues 2016 Movies DVDRip XviD New","uid":13888215,"size":739470533,"categoryP":"video","categoryS":"movies","magnet":"?xt=urn:btih:d66d53d8d680b88e42b7160f238698490464e852&amp;dn=Paw+Patrol+Brave+Heroes+Big+Rescues+2016+Movies+DVDRip+XviD+New+&amp;tr=udp%3A%2F%2Ftracker.leechers-paradise.org%3A6969&amp;tr=udp%3A%2F%2Fzer0day.ch%3A1337&amp;tr=udp%3A%2F%2Fopen.demonii.com%3A1337&amp;tr=udp%3A%2F%2Ftracker.coppersurfer.tk%3A6969&amp;tr=udp%3A%2F%2Fexodus.desync.com%3A6969","seeders":9,"leechers":1,"uploader":"basicssom","files":2,"time":1458194375,"description":"----------------------------------------------------------------\r\nPaw Patrol Brave Heroes Big Rescues 2016 English Movies DVDRip XviD AAC New with Sample ~ ☻rDX☻\r\n\r\nSCREEN SHOTS &amp; POSTER:\r\n  \nhttp://mobileshosting.com/2016/3/ppbhbr/index.htm  \nhttp://mobileshosting.com/2016/3/ppbhbr/1.html  \nhttp://mobileshosting.com/2016/3/ppbhbr/2.html  \nhttp://mobileshosting.com/2016/3/ppbhbr/3.html  \nhttp://mobileshosting.com/2016/3/ppbhbr/4.html  \nhttp://mobileshosting.com/2016/3/ppbhbr/5.html  \nhttp://mobileshosting.com/2016/3/ppbhbr/6.html  \nhttp://mobileshosting.com/2016/3/ppbhbr/7.html  \nhttp://mobileshosting.com/2016/3/ppbhbr/8.html  \nhttp://mobileshosting.com/2016/3/ppbhbr/9.html  \nhttp://mobileshosting.com/2016/3/ppbhbr/10.html\r\n\r\nFormat                                   : Matroska\r\nFormat version                           : Version 4 / Version 2\r\nFile size                                : 699 MiB\r\nDuration                                 : 1h 33mn\r\nOverall bit rate                         : 1 050 Kbps\r\nMovie name                               : Paw Patrol Brave Heroes Big Rescues 2016 English Movies DVDRip XviD AAC New ☻rDX☻\r\n\r\nVideo\r\nID                                       : 1\r\nFormat                                   : MPEG-4 Visual\r\nFormat profile                           :   \r\nFormat settings, BVOP                    : No\r\nFormat settings, QPel                    : No\r\nFormat settings, GMC                     : No warppoints\r\nFormat settings, Matrix                  : Default (H.263)\r\nCodec ID                                 : V_MS/VFW/FOURCC / XVID\r\nCodec ID/Hint                            : XviD\r\nDuration                                 : 1h 33mn\r\nBit rate                                 : 901 Kbps\r\nWidth                                    : 640 pixels\r\nHeight                                   : 352 pixels\r\nDisplay aspect ratio                     : 16:9\r\nFrame rate mode                          : Constant\r\nFrame rate                               : 23.976 fps\r\nColor space                              : YUV\r\nChroma subsampling                       : 4:2:0\r\nBit depth                                : 8 bits\r\nScan type                                : Progressive\r\nCompression mode                         : Lossy\r\nBits/(Pixel*Frame)                       : 0.167\r\nStream size                              : 600 MiB (86%)\r\nTitle                                    : ☻rDX☻\r\nWriting library                          : XviD 1.1.2 (UTC 2006-11-01)\r\nDefault                                  : Yes\r\nForced                                   : No\r\n\r\nAudio\r\nID                                       : 2\r\nFormat                                   : MPEG Audio\r\nFormat version                           : Version 1\r\nFormat profile                           : Layer 3\r\nMode                                     : Joint stereo\r\nMode extension                           : MS Stereo\r\nCodec ID                                 : A_MPEG/L3\r\nCodec ID/Hint                            : MP3\r\nDuration                                 : 1h 33mn\r\nBit rate mode                            : Constant\r\nBit rate                                 : 128 Kbps\r\nChannel(s)                               : 2 channels\r\nSampling rate                            : 48.0 KHz\r\nCompression mode                         : Lossy\r\nStream size                              : 85.2 MiB (12%)\r\nTitle                                    : ☻rDX☻\r\nDefault                                  : Yes\r\nForced                                   : No\r\n\r\nIMDB\r\nna","torrent":{"xt":"urn:btih:d66d53d8d680b88e42b7160f238698490464e852","amp;dn":"Paw+Patrol+Brave+Heroes+Big+Rescues+2016+Movies+DVDRip+XviD+New+","amp;tr":["udp%3A%2F%2Ftracker.leechers-paradise.org%3A6969","udp%3A%2F%2Fzer0day.ch%3A1337","udp%3A%2F%2Fopen.demonii.com%3A1337","udp%3A%2F%2Ftracker.coppersurfer.tk%3A6969","udp%3A%2F%2Fexodus.desync.com%3A6969"],"infoHash":"d66d53d8d680b88e42b7160f238698490464e852","infoHashBuffer":{"type":"Buffer","data":[214,109,83,216,214,128,184,142,66,183,22,15,35,134,152,73,4,100,232,82]},"announce":[],"urlList":[]}}